<svg aria-hidden="true" style="position: absolute; width: 0; height: 0; overflow: hidden;" version="1.1" xmlns="http://www.w3.org/2000/svg" xmlns:xlink="http://www.w3.org/1999/xlink">
<defs>
<symbol id="icon-heart" viewBox="0 0 28 28">
<path d="M14 26c-0.25 0-0.5-0.094-0.688-0.281l-9.75-9.406c-0.125-0.109-3.563-3.25-3.563-7 0-4.578 2.797-7.313 7.469-7.313 2.734 0 5.297 2.156 6.531 3.375 1.234-1.219 3.797-3.375 6.531-3.375 4.672 0 7.469 2.734 7.469 7.313 0 3.75-3.437 6.891-3.578 7.031l-9.734 9.375c-0.187 0.187-0.438 0.281-0.688 0.281z"></path>
</symbol>
<symbol id="icon-fast-backward" viewBox="0 0 28 28">
<path d="M27.297 2.203c0.391-0.391 0.703-0.25 0.703 0.297v23c0 0.547-0.313 0.688-0.703 0.297l-11.094-11.094c-0.094-0.094-0.156-0.187-0.203-0.297v11.094c0 0.547-0.313 0.688-0.703 0.297l-11.094-11.094c-0.094-0.094-0.156-0.187-0.203-0.297v10.594c0 0.547-0.453 1-1 1h-2c-0.547 0-1-0.453-1-1v-22c0-0.547 0.453-1 1-1h2c0.547 0 1 0.453 1 1v10.594c0.047-0.109 0.109-0.203 0.203-0.297l11.094-11.094c0.391-0.391 0.703-0.25 0.703 0.297v11.094c0.047-0.109 0.109-0.203 0.203-0.297z"></path>
</symbol>
<symbol id="icon-play" viewBox="0 0 22 28">
<path d="M21.625 14.484l-20.75 11.531c-0.484 0.266-0.875 0.031-0.875-0.516v-23c0-0.547 0.391-0.781 0.875-0.516l20.75 11.531c0.484 0.266 0.484 0.703 0 0.969z"></path>
</symbol>
<symbol id="icon-pause" viewBox="0 0 24 28">
<path d="M24 3v22c0 0.547-0.453 1-1 1h-8c-0.547 0-1-0.453-1-1v-22c0-0.547 0.453-1 1-1h8c0.547 0 1 0.453 1 1zM10 3v22c0 0.547-0.453 1-1 1h-8c-0.547 0-1-0.453-1-1v-22c0-0.547 0.453-1 1-1h8c0.547 0 1 0.453 1 1z"></path>
</symbol>
<symbol id="icon-fast-forward" viewBox="0 0 28 28">
<path d="M0.703 25.797c-0.391 0.391-0.703 0.25-0.703-0.297v-23c0-0.547 0.313-0.688 0.703-0.297l11.094 11.094c0.094 0.094 0.156 0.187 0.203 0.297v-11.094c0-0.547 0.313-0.688 0.703-0.297l11.094 11.094c0.094 0.094 0.156 0.187 0.203 0.297v-10.594c0-0.547 0.453-1 1-1h2c0.547 0 1 0.453 1 1v22c0 0.547-0.453 1-1 1h-2c-0.547 0-1-0.453-1-1v-10.594c-0.047 0.109-0.109 0.203-0.203 0.297l-11.094 11.094c-0.391 0.391-0.703 0.25-0.703-0.297v-11.094c-0.047 0.109-0.109 0.203-0.203 0.297z"></path>
</symbol>
<symbol id="icon-chevron-down" viewBox="0 0 28 28">
<path d="M26.297 12.625l-11.594 11.578c-0.391 0.391-1.016 0.391-1.406 0l-11.594-11.578c-0.391-0.391-0.391-1.031 0-1.422l2.594-2.578c0.391-0.391 1.016-0.391 1.406 0l8.297 8.297 8.297-8.297c0.391-0.391 1.016-0.391 1.406 0l2.594 2.578c0.391 0.391 0.391 1.031 0 1.422z"></path>
</symbol>
<symbol id="icon-thumbs-o-down" viewBox="0 0 24 28">
<path d="M4 7c0-0.547-0.453-1-1-1s-1 0.453-1 1 0.453 1 1 1 1-0.453 1-1zM22 16c0-0.578-0.438-1.984-1.172-2 0.328-0.375 0.547-1.109 0.547-1.609 0-0.734-0.297-1.359-0.828-1.859 0.187-0.328 0.281-0.703 0.281-1.078 0-0.719-0.359-1.609-1.016-1.969 0.047-0.281 0.078-0.578 0.078-0.875 0-1.828-1.156-2.609-2.891-2.609h-2c-1.844 0-3.625 0.547-5.344 1.141-0.844 0.297-2.281 0.859-3.156 0.859h-0.5v10h0.5c1.234 0 3.094 2.672 3.797 3.578 0.391 0.484 0.766 0.969 1.203 1.422 1.516 1.594 1 3.984 2 5 2.141 0 2.5-1.172 2.5-3 0-1.844-1.5-3.172-1.5-5h5.5c1.047 0 2-0.938 2-2zM24 16.016c0 2.156-1.844 3.984-4 3.984h-2.75c0.469 0.969 0.75 1.906 0.75 3 0 1.031-0.063 1.969-0.547 2.906-0.766 1.516-2.328 2.094-3.953 2.094-0.531 0-1.031-0.219-1.406-0.578-1.563-1.531-1.078-4-2-5.016-0.594-0.625-1.141-1.297-1.672-1.984-0.469-0.609-1.531-2.016-2.141-2.422h-4.281c-1.109 0-2-0.891-2-2v-10c0-1.109 0.891-2 2-2h4.5c0.438 0 1.703-0.469 2.156-0.625 2.25-0.781 4.203-1.375 6.609-1.375h1.75c2.844 0 4.891 1.687 4.875 4.609v0.078c0.609 0.781 0.938 1.781 0.938 2.781 0 0.219-0.016 0.453-0.047 0.672 0.391 0.688 0.594 1.469 0.594 2.25 0 0.359-0.047 0.734-0.141 1.078 0.5 0.75 0.766 1.641 0.766 2.547z"></path>
</symbol>
<symbol id="icon-linkedin-square" viewBox="0 0 24 28">
<path d="M3.703 22.094h3.609v-10.844h-3.609v10.844zM7.547 7.906c-0.016-1.062-0.781-1.875-2.016-1.875s-2.047 0.812-2.047 1.875c0 1.031 0.781 1.875 2 1.875h0.016c1.266 0 2.047-0.844 2.047-1.875zM16.688 22.094h3.609v-6.219c0-3.328-1.781-4.875-4.156-4.875-1.937 0-2.797 1.078-3.266 1.828h0.031v-1.578h-3.609s0.047 1.016 0 10.844v0h3.609v-6.062c0-0.313 0.016-0.641 0.109-0.875 0.266-0.641 0.859-1.313 1.859-1.313 1.297 0 1.813 0.984 1.813 2.453v5.797zM24 6.5v15c0 2.484-2.016 4.5-4.5 4.5h-15c-2.484 0-4.5-2.016-4.5-4.5v-15c0-2.484 2.016-4.5 4.5-4.5h15c2.484 0 4.5 2.016 4.5 4.5z"></path>
</symbol>
<symbol id="icon-external-link" viewBox="0 0 28 28">
<path d="M22 14.5v5c0 2.484-2.016 4.5-4.5 4.5h-13c-2.484 0-4.5-2.016-4.5-4.5v-13c0-2.484 2.016-4.5 4.5-4.5h11c0.281 0 0.5 0.219 0.5 0.5v1c0 0.281-0.219 0.5-0.5 0.5h-11c-1.375 0-2.5 1.125-2.5 2.5v13c0 1.375 1.125 2.5 2.5 2.5h13c1.375 0 2.5-1.125 2.5-2.5v-5c0-0.281 0.219-0.5 0.5-0.5h1c0.281 0 0.5 0.219 0.5 0.5zM28 1v8c0 0.547-0.453 1-1 1-0.266 0-0.516-0.109-0.703-0.297l-2.75-2.75-10.187 10.187c-0.094 0.094-0.234 0.156-0.359 0.156s-0.266-0.063-0.359-0.156l-1.781-1.781c-0.094-0.094-0.156-0.234-0.156-0.359s0.063-0.266 0.156-0.359l10.187-10.187-2.75-2.75c-0.187-0.187-0.297-0.438-0.297-0.703 0-0.547 0.453-1 1-1h8c0.547 0 1 0.453 1 1z"></path>
</symbol>
<symbol id="icon-sign-in" viewBox="0 0 24 28">
<path d="M18.5 14c0 0.266-0.109 0.516-0.297 0.703l-8.5 8.5c-0.187 0.187-0.438 0.297-0.703 0.297-0.547 0-1-0.453-1-1v-4.5h-7c-0.547 0-1-0.453-1-1v-6c0-0.547 0.453-1 1-1h7v-4.5c0-0.547 0.453-1 1-1 0.266 0 0.516 0.109 0.703 0.297l8.5 8.5c0.187 0.187 0.297 0.438 0.297 0.703zM24 8.5v11c0 2.484-2.016 4.5-4.5 4.5h-5c-0.266 0-0.5-0.234-0.5-0.5 0-0.438-0.203-1.5 0.5-1.5h5c1.375 0 2.5-1.125 2.5-2.5v-11c0-1.375-1.125-2.5-2.5-2.5h-4.5c-0.391 0-1 0.078-1-0.5 0-0.438-0.203-1.5 0.5-1.5h5c2.484 0 4.5 2.016 4.5 4.5z"></path>
</symbol>
<symbol id="icon-github-square" viewBox="0 0 24 28">
<path d="M8.109 18.75v0c0.031-0.047 0.016-0.141-0.047-0.203-0.078-0.063-0.172-0.078-0.219-0.031-0.031 0.047-0.016 0.141 0.047 0.203 0.078 0.063 0.172 0.078 0.219 0.031zM7.672 18.109c-0.047-0.063-0.125-0.094-0.187-0.063-0.047 0.031-0.047 0.125 0 0.187 0.063 0.078 0.141 0.109 0.187 0.078v0c0.047-0.031 0.047-0.125 0-0.203zM7.031 17.484v0c0.016-0.031-0.016-0.094-0.078-0.125-0.047-0.016-0.109-0.016-0.125 0.031-0.031 0.047 0 0.094 0.063 0.125 0.063 0.016 0.125 0.016 0.141-0.031zM7.359 17.844v0c0.031-0.031 0.031-0.109-0.031-0.156-0.047-0.063-0.125-0.078-0.156-0.047-0.047 0.047-0.031 0.109 0.016 0.172 0.047 0.047 0.125 0.078 0.172 0.031zM8.703 19.016v0c0.016-0.063-0.047-0.141-0.141-0.172s-0.172 0-0.203 0.063c-0.016 0.063 0.047 0.141 0.141 0.172s0.172 0 0.203-0.063zM9.359 19.063v0c0-0.063-0.078-0.125-0.187-0.125-0.094 0-0.156 0.063-0.156 0.125s0.078 0.125 0.172 0.125 0.172-0.063 0.172-0.125zM9.969 18.953v0c-0.016-0.063-0.109-0.094-0.203-0.078s-0.156 0.078-0.141 0.141 0.094 0.109 0.187 0.094 0.156-0.094 0.156-0.156zM20 14c0-4.422-3.578-8-8-8s-8 3.578-8 8c0 3.531 2.297 6.531 5.469 7.594 0.406 0.078 0.547-0.172 0.547-0.391 0-0.187 0-0.812-0.016-1.484 0 0-2.219 0.484-2.688-0.953 0 0-0.359-0.922-0.891-1.156 0 0-0.719-0.5 0.063-0.5 0 0 0.781 0.063 1.219 0.828 0.703 1.234 1.875 0.875 2.328 0.672 0.078-0.516 0.281-0.875 0.516-1.078-1.781-0.203-3.656-0.891-3.656-3.953 0-0.875 0.313-1.578 0.828-2.141-0.078-0.203-0.359-1.016 0.078-2.125 0.672-0.203 2.203 0.828 2.203 0.828 0.641-0.187 1.313-0.266 2-0.266s1.359 0.078 2 0.266c0 0 1.531-1.031 2.203-0.828 0.438 1.109 0.156 1.922 0.078 2.125 0.516 0.562 0.828 1.266 0.828 2.141 0 3.078-1.875 3.75-3.656 3.953 0.281 0.25 0.547 0.734 0.547 1.484 0 1.062-0.016 1.922-0.016 2.188 0 0.219 0.141 0.469 0.547 0.391 3.172-1.062 5.469-4.062 5.469-7.594zM24 6.5v15c0 2.484-2.016 4.5-4.5 4.5h-15c-2.484 0-4.5-2.016-4.5-4.5v-15c0-2.484 2.016-4.5 4.5-4.5h15c2.484 0 4.5 2.016 4.5 4.5z"></path>
</symbol>
<symbol id="icon-phone" viewBox="0 0 22 28">
<path d="M22 19.375c0 0.562-0.25 1.656-0.484 2.172-0.328 0.766-1.203 1.266-1.906 1.656-0.922 0.5-1.859 0.797-2.906 0.797-1.453 0-2.766-0.594-4.094-1.078-0.953-0.344-1.875-0.766-2.734-1.297-2.656-1.641-5.859-4.844-7.5-7.5-0.531-0.859-0.953-1.781-1.297-2.734-0.484-1.328-1.078-2.641-1.078-4.094 0-1.047 0.297-1.984 0.797-2.906 0.391-0.703 0.891-1.578 1.656-1.906 0.516-0.234 1.609-0.484 2.172-0.484 0.109 0 0.219 0 0.328 0.047 0.328 0.109 0.672 0.875 0.828 1.188 0.5 0.891 0.984 1.797 1.5 2.672 0.25 0.406 0.719 0.906 0.719 1.391 0 0.953-2.828 2.344-2.828 3.187 0 0.422 0.391 0.969 0.609 1.344 1.578 2.844 3.547 4.813 6.391 6.391 0.375 0.219 0.922 0.609 1.344 0.609 0.844 0 2.234-2.828 3.187-2.828 0.484 0 0.984 0.469 1.391 0.719 0.875 0.516 1.781 1 2.672 1.5 0.313 0.156 1.078 0.5 1.188 0.828 0.047 0.109 0.047 0.219 0.047 0.328z"></path>
</symbol>
<symbol id="icon-phone-square" viewBox="0 0 24 28">
<path d="M20 18.641c0-0.078 0-0.172-0.031-0.25-0.094-0.281-2.375-1.437-2.812-1.687-0.297-0.172-0.656-0.516-1.016-0.516-0.688 0-1.703 2.047-2.312 2.047-0.313 0-0.703-0.281-0.984-0.438-2.063-1.156-3.484-2.578-4.641-4.641-0.156-0.281-0.438-0.672-0.438-0.984 0-0.609 2.047-1.625 2.047-2.312 0-0.359-0.344-0.719-0.516-1.016-0.25-0.438-1.406-2.719-1.687-2.812-0.078-0.031-0.172-0.031-0.25-0.031-0.406 0-1.203 0.187-1.578 0.344-1.031 0.469-1.781 2.438-1.781 3.516 0 1.047 0.422 2 0.781 2.969 1.25 3.422 4.969 7.141 8.391 8.391 0.969 0.359 1.922 0.781 2.969 0.781 1.078 0 3.047-0.75 3.516-1.781 0.156-0.375 0.344-1.172 0.344-1.578zM24 6.5v15c0 2.484-2.016 4.5-4.5 4.5h-15c-2.484 0-4.5-2.016-4.5-4.5v-15c0-2.484 2.016-4.5 4.5-4.5h15c2.484 0 4.5 2.016 4.5 4.5z"></path>
</symbol>
<symbol id="icon-twitter" viewBox="0 0 26 28">
<path d="M25.312 6.375c-0.688 1-1.547 1.891-2.531 2.609 0.016 0.219 0.016 0.438 0.016 0.656 0 6.672-5.078 14.359-14.359 14.359-2.859 0-5.516-0.828-7.75-2.266 0.406 0.047 0.797 0.063 1.219 0.063 2.359 0 4.531-0.797 6.266-2.156-2.219-0.047-4.078-1.5-4.719-3.5 0.313 0.047 0.625 0.078 0.953 0.078 0.453 0 0.906-0.063 1.328-0.172-2.312-0.469-4.047-2.5-4.047-4.953v-0.063c0.672 0.375 1.453 0.609 2.281 0.641-1.359-0.906-2.25-2.453-2.25-4.203 0-0.938 0.25-1.797 0.688-2.547 2.484 3.062 6.219 5.063 10.406 5.281-0.078-0.375-0.125-0.766-0.125-1.156 0-2.781 2.25-5.047 5.047-5.047 1.453 0 2.766 0.609 3.687 1.594 1.141-0.219 2.234-0.641 3.203-1.219-0.375 1.172-1.172 2.156-2.219 2.781 1.016-0.109 2-0.391 2.906-0.781z"></path>
</symbol>
<symbol id="icon-github" viewBox="0 0 24 28">
<path d="M12 2c6.625 0 12 5.375 12 12 0 5.297-3.437 9.797-8.203 11.391-0.609 0.109-0.828-0.266-0.828-0.578 0-0.391 0.016-1.687 0.016-3.297 0-1.125-0.375-1.844-0.812-2.219 2.672-0.297 5.484-1.313 5.484-5.922 0-1.313-0.469-2.375-1.234-3.219 0.125-0.313 0.531-1.531-0.125-3.187-1-0.313-3.297 1.234-3.297 1.234-0.953-0.266-1.984-0.406-3-0.406s-2.047 0.141-3 0.406c0 0-2.297-1.547-3.297-1.234-0.656 1.656-0.25 2.875-0.125 3.187-0.766 0.844-1.234 1.906-1.234 3.219 0 4.594 2.797 5.625 5.469 5.922-0.344 0.313-0.656 0.844-0.766 1.609-0.688 0.313-2.438 0.844-3.484-1-0.656-1.141-1.844-1.234-1.844-1.234-1.172-0.016-0.078 0.734-0.078 0.734 0.781 0.359 1.328 1.75 1.328 1.75 0.703 2.141 4.047 1.422 4.047 1.422 0 1 0.016 1.937 0.016 2.234 0 0.313-0.219 0.688-0.828 0.578-4.766-1.594-8.203-6.094-8.203-11.391 0-6.625 5.375-12 12-12zM4.547 19.234c0.031-0.063-0.016-0.141-0.109-0.187-0.094-0.031-0.172-0.016-0.203 0.031-0.031 0.063 0.016 0.141 0.109 0.187 0.078 0.047 0.172 0.031 0.203-0.031zM5.031 19.766c0.063-0.047 0.047-0.156-0.031-0.25-0.078-0.078-0.187-0.109-0.25-0.047-0.063 0.047-0.047 0.156 0.031 0.25 0.078 0.078 0.187 0.109 0.25 0.047zM5.5 20.469c0.078-0.063 0.078-0.187 0-0.297-0.063-0.109-0.187-0.156-0.266-0.094-0.078 0.047-0.078 0.172 0 0.281s0.203 0.156 0.266 0.109zM6.156 21.125c0.063-0.063 0.031-0.203-0.063-0.297-0.109-0.109-0.25-0.125-0.313-0.047-0.078 0.063-0.047 0.203 0.063 0.297 0.109 0.109 0.25 0.125 0.313 0.047zM7.047 21.516c0.031-0.094-0.063-0.203-0.203-0.25-0.125-0.031-0.266 0.016-0.297 0.109s0.063 0.203 0.203 0.234c0.125 0.047 0.266 0 0.297-0.094zM8.031 21.594c0-0.109-0.125-0.187-0.266-0.172-0.141 0-0.25 0.078-0.25 0.172 0 0.109 0.109 0.187 0.266 0.172 0.141 0 0.25-0.078 0.25-0.172zM8.937 21.438c-0.016-0.094-0.141-0.156-0.281-0.141-0.141 0.031-0.234 0.125-0.219 0.234 0.016 0.094 0.141 0.156 0.281 0.125s0.234-0.125 0.219-0.219z"></path>
</symbol>
<symbol id="icon-hand-o-left" viewBox="0 0 28 28">
<path d="M21.5 22h0.5v-10h-0.5c-1.656 0-2.766-1.406-3.766-2.547-0.641-0.719-1.234-1.437-1.75-2.266-0.219-0.344-0.406-0.703-0.594-1.062s-0.969-2.125-1.391-2.125c-1.328 0-2.5 0.5-2.5 2 0 2 1.5 3.016 1.5 4h-9c-1.047 0-2 0.938-2 2 0 1.078 0.922 2 2 2h5.172c-0.328 0.375-0.547 1.109-0.547 1.609 0 0.734 0.297 1.359 0.828 1.859-0.187 0.328-0.281 0.703-0.281 1.078 0 0.719 0.359 1.609 1.016 1.969-0.047 0.281-0.063 0.578-0.063 0.875 0 1.844 1.141 2.609 2.875 2.609 3.109 0 5.766-2 8.5-2zM26 21c0-0.547-0.453-1-1-1s-1 0.453-1 1 0.453 1 1 1 1-0.453 1-1zM28 12v10c0 1.109-0.891 2-2 2h-4.5c-0.984 0-2.531 0.578-3.484 0.922-1.594 0.578-3.234 1.078-4.953 1.078-2.875 0-4.969-1.625-4.953-4.609l0.016-0.078c-0.625-0.781-0.953-1.781-0.953-2.781 0-0.219 0.016-0.453 0.047-0.672-0.328-0.578-0.531-1.203-0.578-1.859h-2.641c-2.188 0-4-1.828-4-4.016 0-2.156 1.844-3.984 4-3.984h5.844c-0.234-0.641-0.344-1.312-0.344-2 0-2.641 2.016-4 4.5-4 2.094 0 2.766 2.672 3.672 4.125 0.469 0.734 1 1.375 1.563 2.016 0.453 0.516 1.516 1.859 2.266 1.859h4.5c1.109 0 2 0.891 2 2z"></path>
</symbol>
<symbol id="icon-hand-o-up" viewBox="0 0 24 28">
<path d="M20 25c0-0.547-0.453-1-1-1s-1 0.453-1 1 0.453 1 1 1 1-0.453 1-1zM22 13.062c0-1.766-0.719-2.953-2.609-2.953-0.297 0-0.594 0.031-0.875 0.078-0.359-0.656-1.25-1.016-1.969-1.016-0.375 0-0.75 0.094-1.078 0.281-0.5-0.531-1.125-0.828-1.859-0.828-0.5 0-1.234 0.219-1.609 0.547v-5.172c0-1.078-0.922-2-2-2-1.062 0-2 0.953-2 2v9c-0.984 0-2-1.5-4-1.5-1.5 0-2 1.172-2 2.5 0 0.438 1.813 1.234 2.172 1.406 0.344 0.187 0.688 0.375 1.016 0.578 0.828 0.516 1.547 1.109 2.266 1.75 1.141 1 2.547 2.109 2.547 3.766v0.5h10v-0.5c0-2.734 2-5.406 2-8.437zM24 12.984c0 1.75-0.484 3.406-1.078 5.031-0.344 0.953-0.922 2.5-0.922 3.484v4.5c0 1.109-0.891 2-2 2h-10c-1.109 0-2-0.891-2-2v-4.5c0-0.75-1.344-1.813-1.859-2.266-0.641-0.562-1.281-1.094-2.016-1.563-1.453-0.906-4.125-1.578-4.125-3.672 0-2.484 1.359-4.5 4-4.5 0.688 0 1.359 0.109 2 0.344v-5.844c0-2.156 1.828-4 3.984-4 2.188 0 4.016 1.813 4.016 4v2.641c0.656 0.047 1.281 0.25 1.859 0.578 0.219-0.031 0.453-0.047 0.672-0.047 1 0 2 0.328 2.781 0.938 2.953-0.031 4.688 1.984 4.688 4.875z"></path>
</symbol>
<symbol id="icon-arrow-circle-down" viewBox="0 0 24 28">
<path d="M20.062 14.016c0-0.266-0.094-0.516-0.281-0.703l-1.422-1.422c-0.187-0.187-0.438-0.281-0.703-0.281s-0.516 0.094-0.703 0.281l-2.953 2.953v-7.844c0-0.547-0.453-1-1-1h-2c-0.547 0-1 0.453-1 1v7.844l-2.953-2.953c-0.187-0.187-0.438-0.297-0.703-0.297s-0.516 0.109-0.703 0.297l-1.422 1.422c-0.187 0.187-0.281 0.438-0.281 0.703s0.094 0.516 0.281 0.703l7.078 7.078c0.187 0.187 0.438 0.281 0.703 0.281s0.516-0.094 0.703-0.281l7.078-7.078c0.187-0.187 0.281-0.438 0.281-0.703zM24 14c0 6.625-5.375 12-12 12s-12-5.375-12-12 5.375-12 12-12 12 5.375 12 12z"></path>
</symbol>
<symbol id="icon-globe" viewBox="0 0 24 28">
<path d="M12 2c6.625 0 12 5.375 12 12s-5.375 12-12 12-12-5.375-12-12 5.375-12 12-12zM16.281 10.141c-0.125 0.094-0.203 0.266-0.359 0.297 0.078-0.016 0.156-0.297 0.203-0.359 0.094-0.109 0.219-0.172 0.344-0.234 0.266-0.109 0.531-0.141 0.812-0.187 0.266-0.063 0.594-0.063 0.797 0.172-0.047-0.047 0.328-0.375 0.375-0.391 0.141-0.078 0.375-0.047 0.469-0.187 0.031-0.047 0.031-0.344 0.031-0.344-0.266 0.031-0.359-0.219-0.375-0.438 0 0.016-0.031 0.063-0.094 0.125 0.016-0.234-0.281-0.063-0.391-0.094-0.359-0.094-0.313-0.344-0.422-0.609-0.063-0.141-0.234-0.187-0.297-0.328-0.063-0.094-0.094-0.297-0.234-0.313-0.094-0.016-0.266 0.328-0.297 0.313-0.141-0.078-0.203 0.031-0.313 0.094-0.094 0.063-0.172 0.031-0.266 0.078 0.281-0.094-0.125-0.25-0.266-0.219 0.219-0.063 0.109-0.297-0.016-0.406h0.078c-0.031-0.141-0.469-0.266-0.609-0.359s-0.891-0.25-1.047-0.156c-0.187 0.109 0.047 0.422 0.047 0.578 0.016 0.187-0.187 0.234-0.187 0.391 0 0.266 0.5 0.219 0.375 0.578-0.078 0.219-0.375 0.266-0.5 0.438-0.125 0.156 0.016 0.438 0.141 0.547 0.125 0.094-0.219 0.25-0.266 0.281-0.266 0.125-0.469-0.266-0.531-0.5-0.047-0.172-0.063-0.375-0.25-0.469-0.094-0.031-0.391-0.078-0.453 0.016-0.094-0.234-0.422-0.328-0.641-0.406-0.313-0.109-0.578-0.109-0.906-0.063 0.109-0.016-0.031-0.5-0.297-0.422 0.078-0.156 0.047-0.328 0.078-0.484 0.031-0.125 0.094-0.25 0.187-0.359 0.031-0.063 0.375-0.422 0.266-0.438 0.266 0.031 0.562 0.047 0.781-0.172 0.141-0.141 0.203-0.375 0.344-0.531 0.203-0.234 0.453 0.063 0.672 0.078 0.313 0.016 0.297-0.328 0.125-0.484 0.203 0.016 0.031-0.359-0.078-0.406-0.141-0.047-0.672 0.094-0.391 0.203-0.063-0.031-0.438 0.75-0.656 0.359-0.063-0.078-0.094-0.406-0.234-0.422-0.125 0-0.203 0.141-0.25 0.234 0.078-0.203-0.438-0.344-0.547-0.359 0.234-0.156 0.047-0.328-0.125-0.422-0.125-0.078-0.516-0.141-0.625-0.016-0.297 0.359 0.313 0.406 0.469 0.5 0.047 0.031 0.234 0.141 0.125 0.219-0.094 0.047-0.375 0.125-0.406 0.187-0.094 0.141 0.109 0.297-0.031 0.438-0.141-0.141-0.141-0.375-0.25-0.531 0.141 0.172-0.562 0.078-0.547 0.078-0.234 0-0.609 0.156-0.781-0.078-0.031-0.063-0.031-0.422 0.063-0.344-0.141-0.109-0.234-0.219-0.328-0.281-0.516 0.172-1 0.391-1.469 0.641 0.063 0.016 0.109 0.016 0.187-0.016 0.125-0.047 0.234-0.125 0.359-0.187 0.156-0.063 0.484-0.25 0.656-0.109 0.016-0.031 0.063-0.063 0.078-0.078 0.109 0.125 0.219 0.25 0.313 0.391-0.125-0.063-0.328-0.031-0.469-0.016-0.109 0.031-0.297 0.063-0.344 0.187 0.047 0.078 0.109 0.203 0.078 0.281-0.203-0.141-0.359-0.375-0.641-0.406-0.125 0-0.25 0-0.344 0.016-1.5 0.828-2.766 2.031-3.672 3.469 0.063 0.063 0.125 0.109 0.187 0.125 0.156 0.047 0 0.5 0.297 0.266 0.094 0.078 0.109 0.187 0.047 0.297 0.016-0.016 0.641 0.391 0.688 0.422 0.109 0.094 0.281 0.203 0.328 0.328 0.031 0.109-0.063 0.234-0.156 0.281-0.016-0.031-0.25-0.266-0.281-0.203-0.047 0.078 0 0.5 0.172 0.484-0.25 0.016-0.141 0.984-0.203 1.172 0 0.016 0.031 0.016 0.031 0.016-0.047 0.187 0.109 0.922 0.422 0.844-0.203 0.047 0.359 0.766 0.438 0.812 0.203 0.141 0.438 0.234 0.578 0.438 0.156 0.219 0.156 0.547 0.375 0.719-0.063 0.187 0.328 0.406 0.313 0.672-0.031 0.016-0.047 0.016-0.078 0.031 0.078 0.219 0.375 0.219 0.484 0.422 0.063 0.125 0 0.422 0.203 0.359 0.031-0.344-0.203-0.688-0.375-0.969-0.094-0.156-0.187-0.297-0.266-0.453-0.078-0.141-0.094-0.313-0.156-0.469 0.063 0.016 0.406 0.141 0.375 0.187-0.125 0.313 0.5 0.859 0.672 1.062 0.047 0.047 0.406 0.516 0.219 0.516 0.203 0 0.484 0.313 0.578 0.469 0.141 0.234 0.109 0.531 0.203 0.781 0.094 0.313 0.531 0.453 0.781 0.594 0.219 0.109 0.406 0.266 0.625 0.344 0.328 0.125 0.406 0.016 0.688-0.031 0.406-0.063 0.453 0.391 0.781 0.562 0.203 0.109 0.641 0.266 0.859 0.172-0.094 0.031 0.328 0.672 0.359 0.719 0.141 0.187 0.406 0.281 0.562 0.469 0.047-0.031 0.094-0.078 0.109-0.141-0.063 0.172 0.234 0.5 0.391 0.469 0.172-0.031 0.219-0.375 0.219-0.5-0.313 0.156-0.594 0.031-0.766-0.281-0.031-0.078-0.281-0.516-0.063-0.516 0.297 0 0.094-0.234 0.063-0.453s-0.25-0.359-0.359-0.547c-0.094 0.187-0.406 0.141-0.5-0.016 0 0.047-0.047 0.125-0.047 0.187-0.078 0-0.156 0.016-0.234-0.016 0.031-0.187 0.047-0.422 0.094-0.625 0.078-0.281 0.594-0.828-0.078-0.797-0.234 0.016-0.328 0.109-0.406 0.313-0.078 0.187-0.047 0.359-0.266 0.453-0.141 0.063-0.609 0.031-0.75-0.047-0.297-0.172-0.5-0.719-0.5-1.031-0.016-0.422 0.203-0.797 0-1.188 0.094-0.078 0.187-0.234 0.297-0.313 0.094-0.063 0.203 0.047 0.25-0.141-0.047-0.031-0.109-0.094-0.125-0.094 0.234 0.109 0.672-0.156 0.875 0 0.125 0.094 0.266 0.125 0.344-0.031 0.016-0.047-0.109-0.234-0.047-0.359 0.047 0.266 0.219 0.313 0.453 0.141 0.094 0.094 0.344 0.063 0.516 0.156 0.172 0.109 0.203 0.281 0.406 0.047 0.125 0.187 0.141 0.187 0.187 0.375 0.047 0.172 0.141 0.609 0.297 0.688 0.328 0.203 0.25-0.344 0.219-0.531-0.016-0.016-0.016-0.531-0.031-0.531-0.5-0.109-0.313-0.5-0.031-0.766 0.047-0.031 0.406-0.156 0.562-0.281 0.141-0.125 0.313-0.344 0.234-0.547 0.078 0 0.141-0.063 0.172-0.141-0.047-0.016-0.234-0.172-0.266-0.156 0.109-0.063 0.094-0.156 0.031-0.25 0.156-0.094 0.078-0.266 0.234-0.328 0.172 0.234 0.516-0.031 0.344-0.219 0.156-0.219 0.516-0.109 0.609-0.313 0.234 0.063 0.063-0.234 0.187-0.406 0.109-0.141 0.297-0.141 0.438-0.219 0 0.016 0.391-0.219 0.266-0.234 0.266 0.031 0.797-0.25 0.391-0.484 0.063-0.141-0.141-0.203-0.281-0.234 0.109-0.031 0.25 0.031 0.344-0.031 0.203-0.141 0.063-0.203-0.109-0.25-0.219-0.063-0.5 0.078-0.672 0.187zM13.734 23.844c2.141-0.375 4.047-1.437 5.484-2.953-0.094-0.094-0.266-0.063-0.391-0.125-0.125-0.047-0.219-0.094-0.375-0.125 0.031-0.313-0.313-0.422-0.531-0.578-0.203-0.156-0.328-0.328-0.625-0.266-0.031 0.016-0.344 0.125-0.281 0.187-0.203-0.172-0.297-0.266-0.562-0.344-0.25-0.078-0.422-0.391-0.672-0.109-0.125 0.125-0.063 0.313-0.125 0.438-0.203-0.172 0.187-0.375 0.031-0.562-0.187-0.219-0.516 0.141-0.672 0.234-0.094 0.078-0.203 0.109-0.266 0.203-0.078 0.109-0.109 0.25-0.172 0.359-0.047-0.125-0.313-0.094-0.328-0.187 0.063 0.375 0.063 0.766 0.141 1.141 0.047 0.219 0 0.578-0.187 0.75s-0.422 0.359-0.453 0.625c-0.031 0.187 0.016 0.359 0.187 0.406 0.016 0.234-0.25 0.406-0.234 0.656 0 0.016 0.016 0.172 0.031 0.25z"></path>
</symbol>
<symbol id="icon-wrench" viewBox="0 0 26 28">
<path d="M6 23c0-0.547-0.453-1-1-1s-1 0.453-1 1 0.453 1 1 1 1-0.453 1-1zM16.063 16.438l-10.656 10.656c-0.359 0.359-0.875 0.578-1.406 0.578s-1.047-0.219-1.422-0.578l-1.656-1.687c-0.375-0.359-0.594-0.875-0.594-1.406s0.219-1.047 0.594-1.422l10.641-10.641c0.812 2.047 2.453 3.687 4.5 4.5zM25.969 9.641c0 0.516-0.187 1.156-0.359 1.656-0.984 2.781-3.656 4.703-6.609 4.703-3.859 0-7-3.141-7-7s3.141-7 7-7c1.141 0 2.625 0.344 3.578 0.984 0.156 0.109 0.25 0.25 0.25 0.438 0 0.172-0.109 0.344-0.25 0.438l-4.578 2.641v3.5l3.016 1.672c0.516-0.297 4.141-2.578 4.453-2.578s0.5 0.234 0.5 0.547z"></path>
</symbol>
<symbol id="icon-briefcase" viewBox="0 0 28 28">
<path d="M10 4h8v-2h-8v2zM28 14v7.5c0 1.375-1.125 2.5-2.5 2.5h-23c-1.375 0-2.5-1.125-2.5-2.5v-7.5h10.5v2.5c0 0.547 0.453 1 1 1h5c0.547 0 1-0.453 1-1v-2.5h10.5zM16 14v2h-4v-2h4zM28 6.5v6h-28v-6c0-1.375 1.125-2.5 2.5-2.5h5.5v-2.5c0-0.828 0.672-1.5 1.5-1.5h9c0.828 0 1.5 0.672 1.5 1.5v2.5h5.5c1.375 0 2.5 1.125 2.5 2.5z"></path>
</symbol>
<symbol id="icon-arrows-alt" viewBox="0 0 24 28">
<path d="M20.047 8.453l-5.547 5.547 5.547 5.547 2.25-2.25c0.281-0.297 0.719-0.375 1.094-0.219 0.359 0.156 0.609 0.516 0.609 0.922v7c0 0.547-0.453 1-1 1h-7c-0.406 0-0.766-0.25-0.922-0.625-0.156-0.359-0.078-0.797 0.219-1.078l2.25-2.25-5.547-5.547-5.547 5.547 2.25 2.25c0.297 0.281 0.375 0.719 0.219 1.078-0.156 0.375-0.516 0.625-0.922 0.625h-7c-0.547 0-1-0.453-1-1v-7c0-0.406 0.25-0.766 0.625-0.922 0.359-0.156 0.797-0.078 1.078 0.219l2.25 2.25 5.547-5.547-5.547-5.547-2.25 2.25c-0.187 0.187-0.438 0.297-0.703 0.297-0.125 0-0.266-0.031-0.375-0.078-0.375-0.156-0.625-0.516-0.625-0.922v-7c0-0.547 0.453-1 1-1h7c0.406 0 0.766 0.25 0.922 0.625 0.156 0.359 0.078 0.797-0.219 1.078l-2.25 2.25 5.547 5.547 5.547-5.547-2.25-2.25c-0.297-0.281-0.375-0.719-0.219-1.078 0.156-0.375 0.516-0.625 0.922-0.625h7c0.547 0 1 0.453 1 1v7c0 0.406-0.25 0.766-0.609 0.922-0.125 0.047-0.266 0.078-0.391 0.078-0.266 0-0.516-0.109-0.703-0.297z"></path>
</symbol>
<symbol id="icon-cloud" viewBox="0 0 30 28">
<path d="M30 18c0 3.313-2.688 6-6 6h-17c-3.859 0-7-3.141-7-7 0-2.797 1.656-5.219 4.031-6.328-0.016-0.219-0.031-0.453-0.031-0.672 0-4.422 3.578-8 8-8 3.344 0 6.203 2.047 7.406 4.969 0.688-0.609 1.594-0.969 2.594-0.969 2.203 0 4 1.797 4 4 0 0.797-0.234 1.531-0.641 2.156 2.656 0.625 4.641 3 4.641 5.844z"></path>
</symbol>
<symbol id="icon-bars" viewBox="0 0 24 28">
<path d="M24 21v2c0 0.547-0.453 1-1 1h-22c-0.547 0-1-0.453-1-1v-2c0-0.547 0.453-1 1-1h22c0.547 0 1 0.453 1 1zM24 13v2c0 0.547-0.453 1-1 1h-22c-0.547 0-1-0.453-1-1v-2c0-0.547 0.453-1 1-1h22c0.547 0 1 0.453 1 1zM24 5v2c0 0.547-0.453 1-1 1h-22c-0.547 0-1-0.453-1-1v-2c0-0.547 0.453-1 1-1h22c0.547 0 1 0.453 1 1z"></path>
</symbol>
<symbol id="icon-list-ul" viewBox="0 0 28 28">
<path d="M6 22c0 1.656-1.344 3-3 3s-3-1.344-3-3 1.344-3 3-3 3 1.344 3 3zM6 14c0 1.656-1.344 3-3 3s-3-1.344-3-3 1.344-3 3-3 3 1.344 3 3zM28 20.5v3c0 0.266-0.234 0.5-0.5 0.5h-19c-0.266 0-0.5-0.234-0.5-0.5v-3c0-0.266 0.234-0.5 0.5-0.5h19c0.266 0 0.5 0.234 0.5 0.5zM6 6c0 1.656-1.344 3-3 3s-3-1.344-3-3 1.344-3 3-3 3 1.344 3 3zM28 12.5v3c0 0.266-0.234 0.5-0.5 0.5h-19c-0.266 0-0.5-0.234-0.5-0.5v-3c0-0.266 0.234-0.5 0.5-0.5h19c0.266 0 0.5 0.234 0.5 0.5zM28 4.5v3c0 0.266-0.234 0.5-0.5 0.5h-19c-0.266 0-0.5-0.234-0.5-0.5v-3c0-0.266 0.234-0.5 0.5-0.5h19c0.266 0 0.5 0.234 0.5 0.5z"></path>
</symbol>
<symbol id="icon-list-ol" viewBox="0 0 28 28">
<path d="M5.953 25.312c0 1.719-1.344 2.688-2.969 2.688-0.984 0-1.984-0.328-2.688-1.031l0.891-1.375c0.422 0.391 1.062 0.703 1.656 0.703 0.547 0 1.125-0.266 1.125-0.891 0-0.875-1-0.922-1.641-0.875l-0.406-0.875c0.562-0.719 1.078-1.516 1.75-2.125v-0.016c-0.5 0-1.016 0.031-1.516 0.031v0.828h-1.656v-2.375h5.203v1.375l-1.484 1.797c1.047 0.25 1.734 1.062 1.734 2.141zM5.984 15.516v2.484h-5.656c-0.047-0.281-0.094-0.562-0.094-0.844 0-2.891 3.531-3.328 3.531-4.641 0-0.531-0.328-0.812-0.844-0.812-0.547 0-1 0.469-1.266 0.906l-1.328-0.922c0.516-1.078 1.578-1.687 2.766-1.687 1.453 0 2.703 0.859 2.703 2.406 0 2.312-3.391 2.828-3.437 4.047h1.984v-0.938h1.641zM28 20.5v3c0 0.266-0.234 0.5-0.5 0.5h-19c-0.281 0-0.5-0.234-0.5-0.5v-3c0-0.281 0.219-0.5 0.5-0.5h19c0.266 0 0.5 0.219 0.5 0.5zM6 6.453v1.547h-5.234v-1.547h1.672c0-1.266 0.016-2.531 0.016-3.797v-0.187h-0.031c-0.172 0.344-0.484 0.578-0.781 0.844l-1.109-1.188 2.125-1.984h1.656v6.312h1.687zM28 12.5v3c0 0.266-0.234 0.5-0.5 0.5h-19c-0.281 0-0.5-0.234-0.5-0.5v-3c0-0.281 0.219-0.5 0.5-0.5h19c0.266 0 0.5 0.219 0.5 0.5zM28 4.5v3c0 0.266-0.234 0.5-0.5 0.5h-19c-0.281 0-0.5-0.234-0.5-0.5v-3c0-0.266 0.219-0.5 0.5-0.5h19c0.266 0 0.5 0.234 0.5 0.5z"></path>
</symbol>
<symbol id="icon-strikethrough" viewBox="0 0 28 28">
<path d="M27.5 14c0.281 0 0.5 0.219 0.5 0.5v1c0 0.281-0.219 0.5-0.5 0.5h-27c-0.281 0-0.5-0.219-0.5-0.5v-1c0-0.281 0.219-0.5 0.5-0.5h27zM7.547 13c-0.297-0.375-0.562-0.797-0.797-1.25-0.5-1.016-0.75-2-0.75-2.938 0-1.906 0.703-3.5 2.094-4.828s3.437-1.984 6.141-1.984c0.594 0 1.453 0.109 2.609 0.297 0.688 0.125 1.609 0.375 2.766 0.75 0.109 0.406 0.219 1.031 0.328 1.844 0.141 1.234 0.219 2.187 0.219 2.859 0 0.219-0.031 0.453-0.078 0.703l-0.187 0.047-1.313-0.094-0.219-0.031c-0.531-1.578-1.078-2.641-1.609-3.203-0.922-0.953-2.031-1.422-3.281-1.422-1.188 0-2.141 0.313-2.844 0.922s-1.047 1.375-1.047 2.281c0 0.766 0.344 1.484 1.031 2.188s2.141 1.375 4.359 2.016c0.75 0.219 1.641 0.562 2.703 1.031 0.562 0.266 1.062 0.531 1.484 0.812h-11.609zM15.469 17h6.422c0.078 0.438 0.109 0.922 0.109 1.437 0 1.125-0.203 2.234-0.641 3.313-0.234 0.578-0.594 1.109-1.109 1.625-0.375 0.359-0.938 0.781-1.703 1.266-0.781 0.469-1.563 0.828-2.391 1.031-0.828 0.219-1.875 0.328-3.172 0.328-0.859 0-1.891-0.031-3.047-0.359l-2.188-0.625c-0.609-0.172-0.969-0.313-1.125-0.438-0.063-0.063-0.125-0.172-0.125-0.344v-0.203c0-0.125 0.031-0.938-0.031-2.438-0.031-0.781 0.031-1.328 0.031-1.641v-0.688l1.594-0.031c0.578 1.328 0.844 2.125 1.016 2.406 0.375 0.609 0.797 1.094 1.25 1.469s1 0.672 1.641 0.891c0.625 0.234 1.328 0.344 2.063 0.344 0.656 0 1.391-0.141 2.172-0.422 0.797-0.266 1.437-0.719 1.906-1.344 0.484-0.625 0.734-1.297 0.734-2.016 0-0.875-0.422-1.687-1.266-2.453-0.344-0.297-1.062-0.672-2.141-1.109z"></path>
</symbol>
<symbol id="icon-magic" viewBox="0 0 26 28">
<path d="M18.594 9.078l4.578-4.578-1.672-1.672-4.578 4.578zM25.578 4.5c0 0.266-0.094 0.516-0.281 0.703l-20.094 20.094c-0.187 0.187-0.438 0.281-0.703 0.281s-0.516-0.094-0.703-0.281l-3.094-3.094c-0.187-0.187-0.281-0.438-0.281-0.703s0.094-0.516 0.281-0.703l20.094-20.094c0.187-0.187 0.438-0.281 0.703-0.281s0.516 0.094 0.703 0.281l3.094 3.094c0.187 0.187 0.281 0.438 0.281 0.703zM4.469 1.531l1.531 0.469-1.531 0.469-0.469 1.531-0.469-1.531-1.531-0.469 1.531-0.469 0.469-1.531zM9.938 4.062l3.063 0.938-3.063 0.938-0.938 3.063-0.938-3.063-3.063-0.938 3.063-0.938 0.938-3.063zM24.469 11.531l1.531 0.469-1.531 0.469-0.469 1.531-0.469-1.531-1.531-0.469 1.531-0.469 0.469-1.531zM14.469 1.531l1.531 0.469-1.531 0.469-0.469 1.531-0.469-1.531-1.531-0.469 1.531-0.469 0.469-1.531z"></path>
</symbol>
<symbol id="icon-pinterest-square" viewBox="0 0 24 28">
<path d="M19.5 2c2.484 0 4.5 2.016 4.5 4.5v15c0 2.484-2.016 4.5-4.5 4.5h-11.328c0.516-0.734 1.359-2 1.687-3.281 0 0 0.141-0.531 0.828-3.266 0.422 0.797 1.625 1.484 2.906 1.484 3.813 0 6.406-3.484 6.406-8.141 0-3.516-2.984-6.797-7.516-6.797-5.641 0-8.484 4.047-8.484 7.422 0 2.031 0.781 3.844 2.438 4.531 0.266 0.109 0.516 0 0.594-0.297 0.047-0.203 0.172-0.734 0.234-0.953 0.078-0.297 0.047-0.406-0.172-0.656-0.469-0.578-0.781-1.297-0.781-2.344 0-3 2.25-5.672 5.844-5.672 3.187 0 4.937 1.937 4.937 4.547 0 3.422-1.516 6.312-3.766 6.312-1.234 0-2.172-1.031-1.875-2.297 0.359-1.5 1.047-3.125 1.047-4.203 0-0.969-0.516-1.781-1.594-1.781-1.266 0-2.281 1.313-2.281 3.063 0 0 0 1.125 0.375 1.891-1.297 5.5-1.531 6.469-1.531 6.469-0.344 1.437-0.203 3.109-0.109 3.969h-2.859c-2.484 0-4.5-2.016-4.5-4.5v-15c0-2.484 2.016-4.5 4.5-4.5h15z"></path>
</symbol>
<symbol id="icon-google-plus-square" viewBox="0 0 24 28">
<path d="M14.328 14.141c0-0.391-0.047-0.703-0.094-1h-5.656v2.063h3.391c-0.125 0.875-1.016 2.578-3.391 2.578-2.063 0-3.734-1.687-3.734-3.781s1.672-3.781 3.734-3.781c1.156 0 1.937 0.484 2.391 0.922l1.625-1.578c-1.047-0.969-2.406-1.563-4.016-1.563-3.328 0-6 2.688-6 6s2.672 6 6 6c3.453 0 5.75-2.438 5.75-5.859zM19.719 14.859h1.703v-1.719h-1.703v-1.719h-1.719v1.719h-1.719v1.719h1.719v1.719h1.719v-1.719zM24 6.5v15c0 2.484-2.016 4.5-4.5 4.5h-15c-2.484 0-4.5-2.016-4.5-4.5v-15c0-2.484 2.016-4.5 4.5-4.5h15c2.484 0 4.5 2.016 4.5 4.5z"></path>
</symbol>
<symbol id="icon-google-plus" viewBox="0 0 36 28">
<path d="M22.453 14.266c0 6.547-4.391 11.188-11 11.188-6.328 0-11.453-5.125-11.453-11.453s5.125-11.453 11.453-11.453c3.094 0 5.672 1.125 7.672 3l-3.109 2.984c-0.844-0.812-2.328-1.766-4.562-1.766-3.906 0-7.094 3.234-7.094 7.234s3.187 7.234 7.094 7.234c4.531 0 6.234-3.266 6.5-4.937h-6.5v-3.938h10.813c0.109 0.578 0.187 1.156 0.187 1.906zM36 12.359v3.281h-3.266v3.266h-3.281v-3.266h-3.266v-3.281h3.266v-3.266h3.281v3.266h3.266z"></path>
</symbol>
<symbol id="icon-caret-right" viewBox="0 0 9 28">
<path d="M9 14c0 0.266-0.109 0.516-0.297 0.703l-7 7c-0.187 0.187-0.438 0.297-0.703 0.297-0.547 0-1-0.453-1-1v-14c0-0.547 0.453-1 1-1 0.266 0 0.516 0.109 0.703 0.297l7 7c0.187 0.187 0.297 0.438 0.297 0.703z"></path>
</symbol>
<symbol id="icon-columns" viewBox="0 0 26 28">
<path d="M2.5 24h9.5v-18h-10v17.5c0 0.266 0.234 0.5 0.5 0.5zM24 23.5v-17.5h-10v18h9.5c0.266 0 0.5-0.234 0.5-0.5zM26 4.5v19c0 1.375-1.125 2.5-2.5 2.5h-21c-1.375 0-2.5-1.125-2.5-2.5v-19c0-1.375 1.125-2.5 2.5-2.5h21c1.375 0 2.5 1.125 2.5 2.5z"></path>
</symbol>
<symbol id="icon-sort" viewBox="0 0 16 28">
<path d="M16 17c0 0.266-0.109 0.516-0.297 0.703l-7 7c-0.187 0.187-0.438 0.297-0.703 0.297s-0.516-0.109-0.703-0.297l-7-7c-0.187-0.187-0.297-0.438-0.297-0.703 0-0.547 0.453-1 1-1h14c0.547 0 1 0.453 1 1zM16 11c0 0.547-0.453 1-1 1h-14c-0.547 0-1-0.453-1-1 0-0.266 0.109-0.516 0.297-0.703l7-7c0.187-0.187 0.438-0.297 0.703-0.297s0.516 0.109 0.703 0.297l7 7c0.187 0.187 0.297 0.438 0.297 0.703z"></path>
</symbol>
<symbol id="icon-sort-desc" viewBox="0 0 16 28">
<path d="M16 17c0 0.266-0.109 0.516-0.297 0.703l-7 7c-0.187 0.187-0.438 0.297-0.703 0.297s-0.516-0.109-0.703-0.297l-7-7c-0.187-0.187-0.297-0.438-0.297-0.703 0-0.547 0.453-1 1-1h14c0.547 0 1 0.453 1 1z"></path>
</symbol>
<symbol id="icon-comment-o" viewBox="0 0 28 28">
<path d="M14 6c-6.5 0-12 3.656-12 8 0 2.328 1.563 4.547 4.266 6.078l1.359 0.781-0.422 1.5c-0.297 1.109-0.688 1.969-1.094 2.688 1.578-0.656 3.016-1.547 4.297-2.672l0.672-0.594 0.891 0.094c0.672 0.078 1.359 0.125 2.031 0.125 6.5 0 12-3.656 12-8s-5.5-8-12-8zM28 14c0 5.531-6.266 10-14 10-0.766 0-1.531-0.047-2.266-0.125-2.047 1.813-4.484 3.094-7.187 3.781-0.562 0.156-1.172 0.266-1.781 0.344h-0.078c-0.313 0-0.594-0.25-0.672-0.594v-0.016c-0.078-0.391 0.187-0.625 0.422-0.906 0.984-1.109 2.109-2.047 2.844-4.656-3.219-1.828-5.281-4.656-5.281-7.828 0-5.531 6.266-10 14-10v0c7.734 0 14 4.469 14 10z"></path>
</symbol>
<symbol id="icon-comments-o" viewBox="0 0 28 28">
<path d="M11 6c-4.875 0-9 2.75-9 6 0 1.719 1.156 3.375 3.156 4.531l1.516 0.875-0.547 1.313c0.328-0.187 0.656-0.391 0.969-0.609l0.688-0.484 0.828 0.156c0.781 0.141 1.578 0.219 2.391 0.219 4.875 0 9-2.75 9-6s-4.125-6-9-6zM11 4c6.078 0 11 3.578 11 8s-4.922 8-11 8c-0.953 0-1.875-0.094-2.75-0.25-1.297 0.922-2.766 1.594-4.344 2-0.422 0.109-0.875 0.187-1.344 0.25h-0.047c-0.234 0-0.453-0.187-0.5-0.453v0c-0.063-0.297 0.141-0.484 0.313-0.688 0.609-0.688 1.297-1.297 1.828-2.594-2.531-1.469-4.156-3.734-4.156-6.266 0-4.422 4.922-8 11-8zM23.844 22.266c0.531 1.297 1.219 1.906 1.828 2.594 0.172 0.203 0.375 0.391 0.313 0.688v0c-0.063 0.281-0.297 0.484-0.547 0.453-0.469-0.063-0.922-0.141-1.344-0.25-1.578-0.406-3.047-1.078-4.344-2-0.875 0.156-1.797 0.25-2.75 0.25-2.828 0-5.422-0.781-7.375-2.063 0.453 0.031 0.922 0.063 1.375 0.063 3.359 0 6.531-0.969 8.953-2.719 2.609-1.906 4.047-4.484 4.047-7.281 0-0.812-0.125-1.609-0.359-2.375 2.641 1.453 4.359 3.766 4.359 6.375 0 2.547-1.625 4.797-4.156 6.266z"></path>
</symbol>
<symbol id="icon-bolt" viewBox="0 0 14 28">
<path d="M13.828 8.844c0.172 0.187 0.219 0.453 0.109 0.688l-8.437 18.078c-0.125 0.234-0.375 0.391-0.656 0.391-0.063 0-0.141-0.016-0.219-0.031-0.344-0.109-0.547-0.438-0.469-0.766l3.078-12.625-6.344 1.578c-0.063 0.016-0.125 0.016-0.187 0.016-0.172 0-0.359-0.063-0.484-0.172-0.187-0.156-0.25-0.391-0.203-0.609l3.141-12.891c0.078-0.297 0.359-0.5 0.688-0.5h5.125c0.391 0 0.703 0.297 0.703 0.656 0 0.094-0.031 0.187-0.078 0.281l-2.672 7.234 6.188-1.531c0.063-0.016 0.125-0.031 0.187-0.031 0.203 0 0.391 0.094 0.531 0.234z"></path>
</symbol>
<symbol id="icon-lightbulb-o" viewBox="0 0 16 28">
<path d="M11.5 9c0 0.266-0.234 0.5-0.5 0.5s-0.5-0.234-0.5-0.5c0-1.078-1.672-1.5-2.5-1.5-0.266 0-0.5-0.234-0.5-0.5s0.234-0.5 0.5-0.5c1.453 0 3.5 0.766 3.5 2.5zM14 9c0-3.125-3.172-5-6-5s-6 1.875-6 5c0 1 0.406 2.047 1.062 2.812 0.297 0.344 0.641 0.672 0.953 1.031 1.109 1.328 2.047 2.891 2.203 4.656h3.563c0.156-1.766 1.094-3.328 2.203-4.656 0.313-0.359 0.656-0.688 0.953-1.031 0.656-0.766 1.062-1.813 1.062-2.812zM16 9c0 1.609-0.531 3-1.609 4.188s-2.5 2.859-2.625 4.531c0.453 0.266 0.734 0.766 0.734 1.281 0 0.375-0.141 0.734-0.391 1 0.25 0.266 0.391 0.625 0.391 1 0 0.516-0.266 0.984-0.703 1.266 0.125 0.219 0.203 0.484 0.203 0.734 0 1.016-0.797 1.5-1.703 1.5-0.406 0.906-1.313 1.5-2.297 1.5s-1.891-0.594-2.297-1.5c-0.906 0-1.703-0.484-1.703-1.5 0-0.25 0.078-0.516 0.203-0.734-0.438-0.281-0.703-0.75-0.703-1.266 0-0.375 0.141-0.734 0.391-1-0.25-0.266-0.391-0.625-0.391-1 0-0.516 0.281-1.016 0.734-1.281-0.125-1.672-1.547-3.344-2.625-4.531s-1.609-2.578-1.609-4.188c0-4.25 4.047-7 8-7s8 2.75 8 7z"></path>
</symbol>
<symbol id="icon-exchange" viewBox="0 0 28 28">
<path d="M28 18.5v3c0 0.266-0.234 0.5-0.5 0.5h-21.5v3c0 0.266-0.219 0.5-0.5 0.5-0.141 0-0.266-0.063-0.375-0.156l-4.984-5c-0.094-0.094-0.141-0.219-0.141-0.344 0-0.141 0.047-0.266 0.141-0.359l5-5c0.094-0.094 0.234-0.141 0.359-0.141 0.266 0 0.5 0.219 0.5 0.5v3h21.5c0.266 0 0.5 0.219 0.5 0.5zM28 10c0 0.125-0.047 0.266-0.141 0.359l-5 5c-0.094 0.094-0.234 0.141-0.359 0.141-0.266 0-0.5-0.234-0.5-0.5v-3h-21.5c-0.266 0-0.5-0.234-0.5-0.5v-3c0-0.266 0.234-0.5 0.5-0.5h21.5v-3c0-0.281 0.219-0.5 0.5-0.5 0.141 0 0.266 0.063 0.375 0.156l4.984 4.984c0.094 0.094 0.141 0.234 0.141 0.359z"></path>
</symbol>
<symbol id="icon-cloud-download" viewBox="0 0 30 28">
<path d="M20 14.5c0-0.281-0.219-0.5-0.5-0.5h-3.5v-5.5c0-0.266-0.234-0.5-0.5-0.5h-3c-0.266 0-0.5 0.234-0.5 0.5v5.5h-3.5c-0.281 0-0.5 0.234-0.5 0.5 0 0.125 0.047 0.266 0.141 0.359l5.5 5.5c0.094 0.094 0.219 0.141 0.359 0.141 0.125 0 0.266-0.047 0.359-0.141l5.484-5.484c0.094-0.109 0.156-0.234 0.156-0.375zM30 18c0 3.313-2.688 6-6 6h-17c-3.859 0-7-3.141-7-7 0-2.719 1.578-5.187 4.031-6.328-0.016-0.234-0.031-0.453-0.031-0.672 0-4.422 3.578-8 8-8 3.25 0 6.172 1.969 7.406 4.969 0.719-0.625 1.641-0.969 2.594-0.969 2.203 0 4 1.797 4 4 0 0.766-0.219 1.516-0.641 2.156 2.719 0.641 4.641 3.063 4.641 5.844z"></path>
</symbol>
<symbol id="icon-cloud-upload" viewBox="0 0 30 28">
<path d="M20 13.5c0-0.125-0.047-0.266-0.141-0.359l-5.5-5.5c-0.094-0.094-0.219-0.141-0.359-0.141-0.125 0-0.266 0.047-0.359 0.141l-5.484 5.484c-0.094 0.109-0.156 0.234-0.156 0.375 0 0.281 0.219 0.5 0.5 0.5h3.5v5.5c0 0.266 0.234 0.5 0.5 0.5h3c0.266 0 0.5-0.234 0.5-0.5v-5.5h3.5c0.281 0 0.5-0.234 0.5-0.5zM30 18c0 3.313-2.688 6-6 6h-17c-3.859 0-7-3.141-7-7 0-2.719 1.578-5.187 4.031-6.328-0.016-0.234-0.031-0.453-0.031-0.672 0-4.422 3.578-8 8-8 3.25 0 6.172 1.969 7.406 4.969 0.719-0.625 1.641-0.969 2.594-0.969 2.203 0 4 1.797 4 4 0 0.766-0.219 1.516-0.641 2.156 2.719 0.641 4.641 3.063 4.641 5.844z"></path>
</symbol>
<symbol id="icon-file-text-o" viewBox="0 0 24 28">
<path d="M22.937 5.938c0.578 0.578 1.062 1.734 1.062 2.562v18c0 0.828-0.672 1.5-1.5 1.5h-21c-0.828 0-1.5-0.672-1.5-1.5v-25c0-0.828 0.672-1.5 1.5-1.5h14c0.828 0 1.984 0.484 2.562 1.062zM16 2.125v5.875h5.875c-0.094-0.266-0.234-0.531-0.344-0.641l-4.891-4.891c-0.109-0.109-0.375-0.25-0.641-0.344zM22 26v-16h-6.5c-0.828 0-1.5-0.672-1.5-1.5v-6.5h-12v24h20zM6 12.5c0-0.281 0.219-0.5 0.5-0.5h11c0.281 0 0.5 0.219 0.5 0.5v1c0 0.281-0.219 0.5-0.5 0.5h-11c-0.281 0-0.5-0.219-0.5-0.5v-1zM17.5 16c0.281 0 0.5 0.219 0.5 0.5v1c0 0.281-0.219 0.5-0.5 0.5h-11c-0.281 0-0.5-0.219-0.5-0.5v-1c0-0.281 0.219-0.5 0.5-0.5h11zM17.5 20c0.281 0 0.5 0.219 0.5 0.5v1c0 0.281-0.219 0.5-0.5 0.5h-11c-0.281 0-0.5-0.219-0.5-0.5v-1c0-0.281 0.219-0.5 0.5-0.5h11z"></path>
</symbol>
<symbol id="icon-building-o" viewBox="0 0 22 28">
<path d="M6 20.5v1c0 0.266-0.234 0.5-0.5 0.5h-1c-0.266 0-0.5-0.234-0.5-0.5v-1c0-0.266 0.234-0.5 0.5-0.5h1c0.266 0 0.5 0.234 0.5 0.5zM6 16.5v1c0 0.266-0.234 0.5-0.5 0.5h-1c-0.266 0-0.5-0.234-0.5-0.5v-1c0-0.266 0.234-0.5 0.5-0.5h1c0.266 0 0.5 0.234 0.5 0.5zM10 16.5v1c0 0.266-0.234 0.5-0.5 0.5h-1c-0.266 0-0.5-0.234-0.5-0.5v-1c0-0.266 0.234-0.5 0.5-0.5h1c0.266 0 0.5 0.234 0.5 0.5zM6 12.5v1c0 0.266-0.234 0.5-0.5 0.5h-1c-0.266 0-0.5-0.234-0.5-0.5v-1c0-0.266 0.234-0.5 0.5-0.5h1c0.266 0 0.5 0.234 0.5 0.5zM18 20.5v1c0 0.266-0.234 0.5-0.5 0.5h-1c-0.266 0-0.5-0.234-0.5-0.5v-1c0-0.266 0.234-0.5 0.5-0.5h1c0.266 0 0.5 0.234 0.5 0.5zM14 16.5v1c0 0.266-0.234 0.5-0.5 0.5h-1c-0.266 0-0.5-0.234-0.5-0.5v-1c0-0.266 0.234-0.5 0.5-0.5h1c0.266 0 0.5 0.234 0.5 0.5zM10 12.5v1c0 0.266-0.234 0.5-0.5 0.5h-1c-0.266 0-0.5-0.234-0.5-0.5v-1c0-0.266 0.234-0.5 0.5-0.5h1c0.266 0 0.5 0.234 0.5 0.5zM6 8.5v1c0 0.266-0.234 0.5-0.5 0.5h-1c-0.266 0-0.5-0.234-0.5-0.5v-1c0-0.266 0.234-0.5 0.5-0.5h1c0.266 0 0.5 0.234 0.5 0.5zM18 16.5v1c0 0.266-0.234 0.5-0.5 0.5h-1c-0.266 0-0.5-0.234-0.5-0.5v-1c0-0.266 0.234-0.5 0.5-0.5h1c0.266 0 0.5 0.234 0.5 0.5zM14 12.5v1c0 0.266-0.234 0.5-0.5 0.5h-1c-0.266 0-0.5-0.234-0.5-0.5v-1c0-0.266 0.234-0.5 0.5-0.5h1c0.266 0 0.5 0.234 0.5 0.5zM10 8.5v1c0 0.266-0.234 0.5-0.5 0.5h-1c-0.266 0-0.5-0.234-0.5-0.5v-1c0-0.266 0.234-0.5 0.5-0.5h1c0.266 0 0.5 0.234 0.5 0.5zM6 4.5v1c0 0.266-0.234 0.5-0.5 0.5h-1c-0.266 0-0.5-0.234-0.5-0.5v-1c0-0.266 0.234-0.5 0.5-0.5h1c0.266 0 0.5 0.234 0.5 0.5zM18 12.5v1c0 0.266-0.234 0.5-0.5 0.5h-1c-0.266 0-0.5-0.234-0.5-0.5v-1c0-0.266 0.234-0.5 0.5-0.5h1c0.266 0 0.5 0.234 0.5 0.5zM14 8.5v1c0 0.266-0.234 0.5-0.5 0.5h-1c-0.266 0-0.5-0.234-0.5-0.5v-1c0-0.266 0.234-0.5 0.5-0.5h1c0.266 0 0.5 0.234 0.5 0.5zM10 4.5v1c0 0.266-0.234 0.5-0.5 0.5h-1c-0.266 0-0.5-0.234-0.5-0.5v-1c0-0.266 0.234-0.5 0.5-0.5h1c0.266 0 0.5 0.234 0.5 0.5zM18 8.5v1c0 0.266-0.234 0.5-0.5 0.5h-1c-0.266 0-0.5-0.234-0.5-0.5v-1c0-0.266 0.234-0.5 0.5-0.5h1c0.266 0 0.5 0.234 0.5 0.5zM14 4.5v1c0 0.266-0.234 0.5-0.5 0.5h-1c-0.266 0-0.5-0.234-0.5-0.5v-1c0-0.266 0.234-0.5 0.5-0.5h1c0.266 0 0.5 0.234 0.5 0.5zM18 4.5v1c0 0.266-0.234 0.5-0.5 0.5h-1c-0.266 0-0.5-0.234-0.5-0.5v-1c0-0.266 0.234-0.5 0.5-0.5h1c0.266 0 0.5 0.234 0.5 0.5zM14 26h6v-24h-18v24h6v-3.5c0-0.266 0.234-0.5 0.5-0.5h5c0.266 0 0.5 0.234 0.5 0.5v3.5zM22 1v26c0 0.547-0.453 1-1 1h-20c-0.547 0-1-0.453-1-1v-26c0-0.547 0.453-1 1-1h20c0.547 0 1 0.453 1 1z"></path>
</symbol>
<symbol id="icon-hospital-o" viewBox="0 0 22 28">
<path d="M6 20.5v1c0 0.266-0.234 0.5-0.5 0.5h-1c-0.266 0-0.5-0.234-0.5-0.5v-1c0-0.266 0.234-0.5 0.5-0.5h1c0.266 0 0.5 0.234 0.5 0.5zM6 16.5v1c0 0.266-0.234 0.5-0.5 0.5h-1c-0.266 0-0.5-0.234-0.5-0.5v-1c0-0.266 0.234-0.5 0.5-0.5h1c0.266 0 0.5 0.234 0.5 0.5zM10 16.5v1c0 0.266-0.234 0.5-0.5 0.5h-1c-0.266 0-0.5-0.234-0.5-0.5v-1c0-0.266 0.234-0.5 0.5-0.5h1c0.266 0 0.5 0.234 0.5 0.5zM6 12.5v1c0 0.266-0.234 0.5-0.5 0.5h-1c-0.266 0-0.5-0.234-0.5-0.5v-1c0-0.266 0.234-0.5 0.5-0.5h1c0.266 0 0.5 0.234 0.5 0.5zM18 20.5v1c0 0.266-0.234 0.5-0.5 0.5h-1c-0.266 0-0.5-0.234-0.5-0.5v-1c0-0.266 0.234-0.5 0.5-0.5h1c0.266 0 0.5 0.234 0.5 0.5zM14 16.5v1c0 0.266-0.234 0.5-0.5 0.5h-1c-0.266 0-0.5-0.234-0.5-0.5v-1c0-0.266 0.234-0.5 0.5-0.5h1c0.266 0 0.5 0.234 0.5 0.5zM10 12.5v1c0 0.266-0.234 0.5-0.5 0.5h-1c-0.266 0-0.5-0.234-0.5-0.5v-1c0-0.266 0.234-0.5 0.5-0.5h1c0.266 0 0.5 0.234 0.5 0.5zM18 16.5v1c0 0.266-0.234 0.5-0.5 0.5h-1c-0.266 0-0.5-0.234-0.5-0.5v-1c0-0.266 0.234-0.5 0.5-0.5h1c0.266 0 0.5 0.234 0.5 0.5zM14 12.5v1c0 0.266-0.234 0.5-0.5 0.5h-1c-0.266 0-0.5-0.234-0.5-0.5v-1c0-0.266 0.234-0.5 0.5-0.5h1c0.266 0 0.5 0.234 0.5 0.5zM18 12.5v1c0 0.266-0.234 0.5-0.5 0.5h-1c-0.266 0-0.5-0.234-0.5-0.5v-1c0-0.266 0.234-0.5 0.5-0.5h1c0.266 0 0.5 0.234 0.5 0.5zM14 26h6v-18h-4v0.5c0 0.828-0.672 1.5-1.5 1.5h-7c-0.828 0-1.5-0.672-1.5-1.5v-0.5h-4v18h6v-3.5c0-0.266 0.234-0.5 0.5-0.5h5c0.266 0 0.5 0.234 0.5 0.5v3.5zM14 7.5v-5c0-0.266-0.234-0.5-0.5-0.5h-1c-0.266 0-0.5 0.234-0.5 0.5v1.5h-2v-1.5c0-0.266-0.234-0.5-0.5-0.5h-1c-0.266 0-0.5 0.234-0.5 0.5v5c0 0.266 0.234 0.5 0.5 0.5h1c0.266 0 0.5-0.234 0.5-0.5v-1.5h2v1.5c0 0.266 0.234 0.5 0.5 0.5h1c0.266 0 0.5-0.234 0.5-0.5zM22 7v20c0 0.547-0.453 1-1 1h-20c-0.547 0-1-0.453-1-1v-20c0-0.547 0.453-1 1-1h5v-4.5c0-0.828 0.672-1.5 1.5-1.5h7c0.828 0 1.5 0.672 1.5 1.5v4.5h5c0.547 0 1 0.453 1 1z"></path>
</symbol>
<symbol id="icon-ambulance" viewBox="0 0 31 28">
<path d="M10 22c0-1.109-0.891-2-2-2s-2 0.891-2 2 0.891 2 2 2 2-0.891 2-2zM4 14h6v-4h-2.469c-0.094 0.016-0.266 0.078-0.344 0.141l-3.047 3.047c-0.047 0.078-0.125 0.25-0.141 0.344v0.469zM24 22c0-1.109-0.891-2-2-2s-2 0.891-2 2 0.891 2 2 2 2-0.891 2-2zM26 11.5v-3c0-0.281-0.219-0.5-0.5-0.5h-3.5v-3.5c0-0.281-0.219-0.5-0.5-0.5h-3c-0.281 0-0.5 0.219-0.5 0.5v3.5h-3.5c-0.281 0-0.5 0.219-0.5 0.5v3c0 0.281 0.219 0.5 0.5 0.5h3.5v3.5c0 0.281 0.219 0.5 0.5 0.5h3c0.281 0 0.5-0.219 0.5-0.5v-3.5h3.5c0.281 0 0.5-0.219 0.5-0.5zM30 3v18c0 0.547-0.453 1-1 1h-3c0 2.203-1.781 4-4 4-2.203 0-4-1.797-4-4h-6c0 2.203-1.781 4-4 4s-4-1.797-4-4h-2c-0.547 0-1-0.453-1-1s0.453-1 1-1v-6.5c0-0.547 0.313-1.313 0.703-1.703l3.094-3.094c0.391-0.391 1.156-0.703 1.703-0.703h2.5v-5c0-0.547 0.453-1 1-1h18c0.547 0 1 0.453 1 1z"></path>
</symbol>
<symbol id="icon-medkit" viewBox="0 0 28 28">
<path d="M20 17.5v-3c0-0.281-0.219-0.5-0.5-0.5h-3.5v-3.5c0-0.281-0.219-0.5-0.5-0.5h-3c-0.281 0-0.5 0.219-0.5 0.5v3.5h-3.5c-0.281 0-0.5 0.219-0.5 0.5v3c0 0.281 0.219 0.5 0.5 0.5h3.5v3.5c0 0.281 0.219 0.5 0.5 0.5h3c0.281 0 0.5-0.219 0.5-0.5v-3.5h3.5c0.281 0 0.5-0.219 0.5-0.5zM10 6h8v-2h-8v2zM4 6v20h-0.5c-1.922 0-3.5-1.578-3.5-3.5v-13c0-1.922 1.578-3.5 3.5-3.5h0.5zM22.5 6v20h-17v-20h2.5v-2.5c0-0.828 0.672-1.5 1.5-1.5h9c0.828 0 1.5 0.672 1.5 1.5v2.5h2.5zM28 9.5v13c0 1.922-1.578 3.5-3.5 3.5h-0.5v-20h0.5c1.922 0 3.5 1.578 3.5 3.5z"></path>
</symbol>
<symbol id="icon-beer" viewBox="0 0 27 28">
<path d="M10 14v-6h-4v4c0 1.109 0.891 2 2 2h2zM26 21v3h-18v-3l2-3h-2c-3.313 0-6-2.688-6-6v-5l-1-1 0.5-2h7.5l0.5-2h15l0.5 3-1 0.5v12.5z"></path>
</symbol>
<symbol id="icon-h-square" viewBox="0 0 24 28">
<path d="M20 21v-14c0-0.547-0.453-1-1-1h-2c-0.547 0-1 0.453-1 1v5h-8v-5c0-0.547-0.453-1-1-1h-2c-0.547 0-1 0.453-1 1v14c0 0.547 0.453 1 1 1h2c0.547 0 1-0.453 1-1v-5h8v5c0 0.547 0.453 1 1 1h2c0.547 0 1-0.453 1-1zM24 6.5v15c0 2.484-2.016 4.5-4.5 4.5h-15c-2.484 0-4.5-2.016-4.5-4.5v-15c0-2.484 2.016-4.5 4.5-4.5h15c2.484 0 4.5 2.016 4.5 4.5z"></path>
</symbol>
<symbol id="icon-plus-square" viewBox="0 0 24 28">
<path d="M20 15v-2c0-0.547-0.453-1-1-1h-5v-5c0-0.547-0.453-1-1-1h-2c-0.547 0-1 0.453-1 1v5h-5c-0.547 0-1 0.453-1 1v2c0 0.547 0.453 1 1 1h5v5c0 0.547 0.453 1 1 1h2c0.547 0 1-0.453 1-1v-5h5c0.547 0 1-0.453 1-1zM24 6.5v15c0 2.484-2.016 4.5-4.5 4.5h-15c-2.484 0-4.5-2.016-4.5-4.5v-15c0-2.484 2.016-4.5 4.5-4.5h15c2.484 0 4.5 2.016 4.5 4.5z"></path>
</symbol>
<symbol id="icon-angle-double-left" viewBox="0 0 17 28">
<path d="M9.797 21.5c0 0.125-0.063 0.266-0.156 0.359l-0.781 0.781c-0.094 0.094-0.234 0.156-0.359 0.156s-0.266-0.063-0.359-0.156l-7.281-7.281c-0.094-0.094-0.156-0.234-0.156-0.359s0.063-0.266 0.156-0.359l7.281-7.281c0.094-0.094 0.234-0.156 0.359-0.156s0.266 0.063 0.359 0.156l0.781 0.781c0.094 0.094 0.156 0.234 0.156 0.359s-0.063 0.266-0.156 0.359l-6.141 6.141 6.141 6.141c0.094 0.094 0.156 0.234 0.156 0.359zM15.797 21.5c0 0.125-0.063 0.266-0.156 0.359l-0.781 0.781c-0.094 0.094-0.234 0.156-0.359 0.156s-0.266-0.063-0.359-0.156l-7.281-7.281c-0.094-0.094-0.156-0.234-0.156-0.359s0.063-0.266 0.156-0.359l7.281-7.281c0.094-0.094 0.234-0.156 0.359-0.156s0.266 0.063 0.359 0.156l0.781 0.781c0.094 0.094 0.156 0.234 0.156 0.359s-0.063 0.266-0.156 0.359l-6.141 6.141 6.141 6.141c0.094 0.094 0.156 0.234 0.156 0.359z"></path>
</symbol>
<symbol id="icon-angle-down" viewBox="0 0 18 28">
<path d="M16.797 11.5c0 0.125-0.063 0.266-0.156 0.359l-7.281 7.281c-0.094 0.094-0.234 0.156-0.359 0.156s-0.266-0.063-0.359-0.156l-7.281-7.281c-0.094-0.094-0.156-0.234-0.156-0.359s0.063-0.266 0.156-0.359l0.781-0.781c0.094-0.094 0.219-0.156 0.359-0.156 0.125 0 0.266 0.063 0.359 0.156l6.141 6.141 6.141-6.141c0.094-0.094 0.234-0.156 0.359-0.156s0.266 0.063 0.359 0.156l0.781 0.781c0.094 0.094 0.156 0.234 0.156 0.359z"></path>
</symbol>
<symbol id="icon-desktop" viewBox="0 0 30 28">
<path d="M28 15.5v-13c0-0.266-0.234-0.5-0.5-0.5h-25c-0.266 0-0.5 0.234-0.5 0.5v13c0 0.266 0.234 0.5 0.5 0.5h25c0.266 0 0.5-0.234 0.5-0.5zM30 2.5v17c0 1.375-1.125 2.5-2.5 2.5h-8.5c0 1.328 1 2.453 1 3s-0.453 1-1 1h-8c-0.547 0-1-0.453-1-1 0-0.578 1-1.641 1-3h-8.5c-1.375 0-2.5-1.125-2.5-2.5v-17c0-1.375 1.125-2.5 2.5-2.5h25c1.375 0 2.5 1.125 2.5 2.5z"></path>
</symbol>
<symbol id="icon-laptop" viewBox="0 0 30 28">
<path d="M6.5 20c-1.375 0-2.5-1.125-2.5-2.5v-11c0-1.375 1.125-2.5 2.5-2.5h17c1.375 0 2.5 1.125 2.5 2.5v11c0 1.375-1.125 2.5-2.5 2.5h-17zM6 6.5v11c0 0.266 0.234 0.5 0.5 0.5h17c0.266 0 0.5-0.234 0.5-0.5v-11c0-0.266-0.234-0.5-0.5-0.5h-17c-0.266 0-0.5 0.234-0.5 0.5zM27.5 21h2.5v1.5c0 0.828-1.125 1.5-2.5 1.5h-25c-1.375 0-2.5-0.672-2.5-1.5v-1.5h27.5zM16.25 22.5c0.141 0 0.25-0.109 0.25-0.25s-0.109-0.25-0.25-0.25h-2.5c-0.141 0-0.25 0.109-0.25 0.25s0.109 0.25 0.25 0.25h2.5z"></path>
</symbol>
<symbol id="icon-circle" viewBox="0 0 24 28">
<path d="M24 14c0 6.625-5.375 12-12 12s-12-5.375-12-12 5.375-12 12-12 12 5.375 12 12z"></path>
</symbol>
<symbol id="icon-mail-reply" viewBox="0 0 28 28">
<path d="M28 17.5c0 2.188-1.094 5.047-1.984 7.047-0.172 0.359-0.344 0.859-0.578 1.188-0.109 0.156-0.219 0.266-0.438 0.266-0.313 0-0.5-0.25-0.5-0.547 0-0.25 0.063-0.531 0.078-0.781 0.047-0.641 0.078-1.281 0.078-1.922 0-7.453-4.422-8.75-11.156-8.75h-3.5v4c0 0.547-0.453 1-1 1-0.266 0-0.516-0.109-0.703-0.297l-8-8c-0.187-0.187-0.297-0.438-0.297-0.703s0.109-0.516 0.297-0.703l8-8c0.187-0.187 0.438-0.297 0.703-0.297 0.547 0 1 0.453 1 1v4h3.5c5.125 0 11.5 0.906 13.672 6.297 0.656 1.656 0.828 3.453 0.828 5.203z"></path>
</symbol>
<symbol id="icon-github-alt" viewBox="0 0 26 28">
<path d="M10 19c0 1.141-0.594 3-2 3s-2-1.859-2-3 0.594-3 2-3 2 1.859 2 3zM20 19c0 1.141-0.594 3-2 3s-2-1.859-2-3 0.594-3 2-3 2 1.859 2 3zM22.5 19c0-2.391-1.453-4.5-4-4.5-1.031 0-2.016 0.187-3.047 0.328-0.812 0.125-1.625 0.172-2.453 0.172s-1.641-0.047-2.453-0.172c-1.016-0.141-2.016-0.328-3.047-0.328-2.547 0-4 2.109-4 4.5 0 4.781 4.375 5.516 8.188 5.516h2.625c3.813 0 8.188-0.734 8.188-5.516zM26 16.25c0 1.734-0.172 3.578-0.953 5.172-2.063 4.172-7.734 4.578-11.797 4.578-4.125 0-10.141-0.359-12.281-4.578-0.797-1.578-0.969-3.437-0.969-5.172 0-2.281 0.625-4.438 2.125-6.188-0.281-0.859-0.422-1.766-0.422-2.656 0-1.172 0.266-2.344 0.797-3.406 2.469 0 4.047 1.078 5.922 2.547 1.578-0.375 3.203-0.547 4.828-0.547 1.469 0 2.953 0.156 4.375 0.5 1.859-1.453 3.437-2.5 5.875-2.5 0.531 1.062 0.797 2.234 0.797 3.406 0 0.891-0.141 1.781-0.422 2.625 1.5 1.766 2.125 3.938 2.125 6.219z"></path>
</symbol>
<symbol id="icon-folder-o" viewBox="0 0 26 28">
<path d="M24 20.5v-11c0-0.828-0.672-1.5-1.5-1.5h-11c-0.828 0-1.5-0.672-1.5-1.5v-1c0-0.828-0.672-1.5-1.5-1.5h-5c-0.828 0-1.5 0.672-1.5 1.5v15c0 0.828 0.672 1.5 1.5 1.5h19c0.828 0 1.5-0.672 1.5-1.5zM26 9.5v11c0 1.922-1.578 3.5-3.5 3.5h-19c-1.922 0-3.5-1.578-3.5-3.5v-15c0-1.922 1.578-3.5 3.5-3.5h5c1.922 0 3.5 1.578 3.5 3.5v0.5h10.5c1.922 0 3.5 1.578 3.5 3.5z"></path>
</symbol>
<symbol id="icon-folder-open-o" viewBox="0 0 30 28">
<path d="M27.828 14.547c0-0.438-0.484-0.547-0.828-0.547h-17c-0.828 0-1.922 0.516-2.453 1.156l-4.594 5.672c-0.141 0.187-0.281 0.391-0.281 0.625 0 0.438 0.484 0.547 0.828 0.547h17c0.828 0 1.922-0.516 2.453-1.172l4.594-5.672c0.141-0.172 0.281-0.375 0.281-0.609zM10 12h12v-2.5c0-0.828-0.672-1.5-1.5-1.5h-9c-0.828 0-1.5-0.672-1.5-1.5v-1c0-0.828-0.672-1.5-1.5-1.5h-5c-0.828 0-1.5 0.672-1.5 1.5v13.328l4-4.922c0.906-1.109 2.578-1.906 4-1.906zM29.828 14.547c0 0.688-0.297 1.344-0.719 1.875l-4.609 5.672c-0.891 1.094-2.594 1.906-4 1.906h-17c-1.922 0-3.5-1.578-3.5-3.5v-15c0-1.922 1.578-3.5 3.5-3.5h5c1.922 0 3.5 1.578 3.5 3.5v0.5h8.5c1.922 0 3.5 1.578 3.5 3.5v2.5h3c1.062 0 2.125 0.484 2.594 1.484 0.156 0.328 0.234 0.688 0.234 1.062z"></path>
</symbol>
<symbol id="icon-location-arrow" viewBox="0 0 22 28">
<path d="M21.891 5.453l-10 20c-0.172 0.344-0.516 0.547-0.891 0.547-0.078 0-0.156-0.016-0.234-0.031-0.453-0.109-0.766-0.5-0.766-0.969v-9h-9c-0.469 0-0.859-0.313-0.969-0.766s0.109-0.922 0.516-1.125l20-10c0.141-0.078 0.297-0.109 0.453-0.109 0.266 0 0.516 0.094 0.703 0.297 0.313 0.297 0.391 0.766 0.187 1.156z"></path>
</symbol>
<symbol id="icon-crop" viewBox="0 0 26 28">
<path d="M8.703 20h9.297v-9.297zM8 19.297l9.297-9.297h-9.297v9.297zM26 20.5v3c0 0.281-0.219 0.5-0.5 0.5h-3.5v3.5c0 0.281-0.219 0.5-0.5 0.5h-3c-0.281 0-0.5-0.219-0.5-0.5v-3.5h-13.5c-0.281 0-0.5-0.219-0.5-0.5v-13.5h-3.5c-0.281 0-0.5-0.219-0.5-0.5v-3c0-0.281 0.219-0.5 0.5-0.5h3.5v-3.5c0-0.281 0.219-0.5 0.5-0.5h3c0.281 0 0.5 0.219 0.5 0.5v3.5h13.297l3.844-3.859c0.203-0.187 0.516-0.187 0.719 0 0.187 0.203 0.187 0.516 0 0.719l-3.859 3.844v13.297h3.5c0.281 0 0.5 0.219 0.5 0.5z"></path>
</symbol>
<symbol id="icon-code-fork" viewBox="0 0 16 28">
<path d="M4.5 23c0-0.828-0.672-1.5-1.5-1.5s-1.5 0.672-1.5 1.5 0.672 1.5 1.5 1.5 1.5-0.672 1.5-1.5zM4.5 5c0-0.828-0.672-1.5-1.5-1.5s-1.5 0.672-1.5 1.5 0.672 1.5 1.5 1.5 1.5-0.672 1.5-1.5zM14.5 7c0-0.828-0.672-1.5-1.5-1.5s-1.5 0.672-1.5 1.5 0.672 1.5 1.5 1.5 1.5-0.672 1.5-1.5zM16 7c0 1.109-0.609 2.078-1.5 2.594-0.047 5.641-4.047 6.891-6.703 7.734-2.484 0.781-3.297 1.156-3.297 2.672v0.406c0.891 0.516 1.5 1.484 1.5 2.594 0 1.656-1.344 3-3 3s-3-1.344-3-3c0-1.109 0.609-2.078 1.5-2.594v-12.812c-0.891-0.516-1.5-1.484-1.5-2.594 0-1.656 1.344-3 3-3s3 1.344 3 3c0 1.109-0.609 2.078-1.5 2.594v7.766c0.797-0.391 1.641-0.656 2.406-0.891 2.906-0.922 4.562-1.609 4.594-4.875-0.891-0.516-1.5-1.484-1.5-2.594 0-1.656 1.344-3 3-3s3 1.344 3 3z"></path>
</symbol>
<symbol id="icon-chain-broken" viewBox="0 0 26 28">
<path d="M6.859 19.859l-4 4c-0.109 0.094-0.234 0.141-0.359 0.141s-0.25-0.047-0.359-0.141c-0.187-0.203-0.187-0.516 0-0.719l4-4c0.203-0.187 0.516-0.187 0.719 0 0.187 0.203 0.187 0.516 0 0.719zM9.5 20.5v5c0 0.281-0.219 0.5-0.5 0.5s-0.5-0.219-0.5-0.5v-5c0-0.281 0.219-0.5 0.5-0.5s0.5 0.219 0.5 0.5zM6 17c0 0.281-0.219 0.5-0.5 0.5h-5c-0.281 0-0.5-0.219-0.5-0.5s0.219-0.5 0.5-0.5h5c0.281 0 0.5 0.219 0.5 0.5zM25.75 19c0 1.203-0.469 2.328-1.328 3.172l-2.297 2.281c-0.844 0.844-1.969 1.297-3.172 1.297s-2.344-0.469-3.187-1.328l-5.219-5.234c-0.266-0.266-0.469-0.562-0.656-0.875l3.734-0.281 4.266 4.281c0.562 0.562 1.563 0.578 2.125 0.016l2.297-2.281c0.281-0.281 0.438-0.656 0.438-1.047 0-0.406-0.156-0.781-0.438-1.062l-4.281-4.297 0.281-3.734c0.313 0.187 0.609 0.391 0.875 0.656l5.25 5.25c0.844 0.859 1.313 1.984 1.313 3.187zM16.109 7.688l-3.734 0.281-4.266-4.281c-0.281-0.281-0.656-0.438-1.062-0.438s-0.781 0.156-1.062 0.422l-2.297 2.281c-0.281 0.281-0.438 0.656-0.438 1.047 0 0.406 0.156 0.781 0.438 1.062l4.281 4.281-0.281 3.75c-0.313-0.187-0.609-0.391-0.875-0.656l-5.25-5.25c-0.844-0.859-1.313-1.984-1.313-3.187s0.469-2.328 1.328-3.172l2.297-2.281c0.844-0.844 1.969-1.297 3.172-1.297s2.344 0.469 3.187 1.328l5.219 5.234c0.266 0.266 0.469 0.562 0.656 0.875zM26 9c0 0.281-0.219 0.5-0.5 0.5h-5c-0.281 0-0.5-0.219-0.5-0.5s0.219-0.5 0.5-0.5h5c0.281 0 0.5 0.219 0.5 0.5zM17.5 0.5v5c0 0.281-0.219 0.5-0.5 0.5s-0.5-0.219-0.5-0.5v-5c0-0.281 0.219-0.5 0.5-0.5s0.5 0.219 0.5 0.5zM23.859 2.859l-4 4c-0.109 0.094-0.234 0.141-0.359 0.141s-0.25-0.047-0.359-0.141c-0.187-0.203-0.187-0.516 0-0.719l4-4c0.203-0.187 0.516-0.187 0.719 0 0.187 0.203 0.187 0.516 0 0.719z"></path>
</symbol>
<symbol id="icon-info" viewBox="0 0 10 28">
<path d="M10 21v2c0 0.547-0.453 1-1 1h-8c-0.547 0-1-0.453-1-1v-2c0-0.547 0.453-1 1-1h1v-6h-1c-0.547 0-1-0.453-1-1v-2c0-0.547 0.453-1 1-1h6c0.547 0 1 0.453 1 1v9h1c0.547 0 1 0.453 1 1zM8 3v3c0 0.547-0.453 1-1 1h-4c-0.547 0-1-0.453-1-1v-3c0-0.547 0.453-1 1-1h4c0.547 0 1 0.453 1 1z"></path>
</symbol>
<symbol id="icon-maxcdn" viewBox="0 0 28 28">
<path d="M27.266 12.078l-2.562 11.922h-5.219l2.781-13c0.125-0.547 0.047-1.047-0.234-1.375-0.266-0.328-0.734-0.516-1.297-0.516h-2.641l-3.187 14.891h-5.219l3.187-14.891h-4.469l-3.187 14.891h-5.219l3.187-14.891-2.391-5.109h19.938c2.109 0 4.031 0.875 5.266 2.406 1.25 1.531 1.703 3.609 1.266 5.672z"></path>
</symbol>
<symbol id="icon-chevron-circle-left" viewBox="0 0 24 28">
<path d="M14.203 21.797l1.594-1.594c0.391-0.391 0.391-1.016 0-1.406l-4.797-4.797 4.797-4.797c0.391-0.391 0.391-1.016 0-1.406l-1.594-1.594c-0.391-0.391-1.016-0.391-1.406 0l-7.094 7.094c-0.391 0.391-0.391 1.016 0 1.406l7.094 7.094c0.391 0.391 1.016 0.391 1.406 0zM24 14c0 6.625-5.375 12-12 12s-12-5.375-12-12 5.375-12 12-12 12 5.375 12 12z"></path>
</symbol>
<symbol id="icon-chevron-circle-down" viewBox="0 0 24 28">
<path d="M12.703 20.297l7.094-7.094c0.391-0.391 0.391-1.016 0-1.406l-1.594-1.594c-0.391-0.391-1.016-0.391-1.406 0l-4.797 4.797-4.797-4.797c-0.391-0.391-1.016-0.391-1.406 0l-1.594 1.594c-0.391 0.391-0.391 1.016 0 1.406l7.094 7.094c0.391 0.391 1.016 0.391 1.406 0zM24 14c0 6.625-5.375 12-12 12s-12-5.375-12-12 5.375-12 12-12 12 5.375 12 12z"></path>
</symbol>
<symbol id="icon-check-square" viewBox="0 0 24 28">
<path d="M10.703 20.297l9.594-9.594c0.391-0.391 0.391-1.016 0-1.406l-1.594-1.594c-0.391-0.391-1.016-0.391-1.406 0l-7.297 7.297-3.297-3.297c-0.391-0.391-1.016-0.391-1.406 0l-1.594 1.594c-0.391 0.391-0.391 1.016 0 1.406l5.594 5.594c0.391 0.391 1.016 0.391 1.406 0zM24 6.5v15c0 2.484-2.016 4.5-4.5 4.5h-15c-2.484 0-4.5-2.016-4.5-4.5v-15c0-2.484 2.016-4.5 4.5-4.5h15c2.484 0 4.5 2.016 4.5 4.5z"></path>
</symbol>
<symbol id="icon-calculator" viewBox="0 0 26 28">
<path d="M6 24c0-1.109-0.891-2-2-2s-2 0.891-2 2 0.891 2 2 2 2-0.891 2-2zM12 24c0-1.109-0.891-2-2-2s-2 0.891-2 2 0.891 2 2 2 2-0.891 2-2zM6 18c0-1.109-0.891-2-2-2s-2 0.891-2 2 0.891 2 2 2 2-0.891 2-2zM18 24c0-1.109-0.891-2-2-2s-2 0.891-2 2 0.891 2 2 2 2-0.891 2-2zM12 18c0-1.109-0.891-2-2-2s-2 0.891-2 2 0.891 2 2 2 2-0.891 2-2zM6 12c0-1.109-0.891-2-2-2s-2 0.891-2 2 0.891 2 2 2 2-0.891 2-2zM18 18c0-1.109-0.891-2-2-2s-2 0.891-2 2 0.891 2 2 2 2-0.891 2-2zM12 12c0-1.109-0.891-2-2-2s-2 0.891-2 2 0.891 2 2 2 2-0.891 2-2zM24 24v-6c0-1.094-0.906-2-2-2v0c-1.094 0-2 0.906-2 2v6c0 1.094 0.906 2 2 2v0c1.094 0 2-0.906 2-2zM18 12c0-1.109-0.891-2-2-2s-2 0.891-2 2 0.891 2 2 2 2-0.891 2-2zM24 7v-4c0-0.547-0.453-1-1-1h-20c-0.547 0-1 0.453-1 1v4c0 0.547 0.453 1 1 1h20c0.547 0 1-0.453 1-1zM24 12c0-1.109-0.891-2-2-2s-2 0.891-2 2 0.891 2 2 2 2-0.891 2-2zM26 2v24c0 1.094-0.906 2-2 2h-22c-1.094 0-2-0.906-2-2v-24c0-1.094 0.906-2 2-2h22c1.094 0 2 0.906 2 2z"></path>
</symbol>
<symbol id="icon-smartphone" viewBox="0 0 24 24">
<path d="M7 1c-0.828 0-1.58 0.337-2.121 0.879s-0.879 1.293-0.879 2.121v16c0 0.828 0.337 1.58 0.879 2.121s1.293 0.879 2.121 0.879h10c0.828 0 1.58-0.337 2.121-0.879s0.879-1.293 0.879-2.121v-16c0-0.828-0.337-1.58-0.879-2.121s-1.293-0.879-2.121-0.879zM7 3h10c0.276 0 0.525 0.111 0.707 0.293s0.293 0.431 0.293 0.707v16c0 0.276-0.111 0.525-0.293 0.707s-0.431 0.293-0.707 0.293h-10c-0.276 0-0.525-0.111-0.707-0.293s-0.293-0.431-0.293-0.707v-16c0-0.276 0.111-0.525 0.293-0.707s0.431-0.293 0.707-0.293zM12 19c0.552 0 1-0.448 1-1s-0.448-1-1-1-1 0.448-1 1 0.448 1 1 1z"></path>
</symbol>
<symbol id="icon-clock2" viewBox="0 0 32 32">
<path d="M16 0c-8.837 0-16 7.163-16 16s7.163 16 16 16 16-7.163 16-16-7.163-16-16-16zM20.586 23.414l-6.586-6.586v-8.828h4v7.172l5.414 5.414-2.829 2.829z"></path>
</symbol>
<symbol id="icon-telegram" viewBox="0 0 32 32">
<path d="M16 0c-8.838 0-16 7.162-16 16s7.162 16 16 16 16-7.163 16-16-7.163-16-16-16zM23.863 10.969l-2.625 12.369c-0.181 0.881-0.712 1.087-1.45 0.681l-4-2.956-1.919 1.869c-0.225 0.219-0.4 0.4-0.8 0.4-0.519 0-0.431-0.194-0.606-0.688l-1.363-4.475-3.956-1.231c-0.856-0.262-0.862-0.85 0.194-1.269l15.412-5.95c0.7-0.319 1.381 0.169 1.113 1.25z"></path>
</symbol>
</defs>
</svg>
